<svg width="50" height="50" viewBox="0 0 50 50" fill="none" xmlns="http://www.w3.org/2000/svg">
<path d="M46.4375 3.99725H41.0781V3.23163C41.0781 1.96299 40.0499 0.934753 38.7812 0.934753C37.5126 0.934753 36.4844 1.96299 36.4844 3.23163V3.99725H13.5156V3.23163C13.5156 1.96299 12.4874 0.934753 11.2188 0.934753C9.95011 0.934753 8.92188 1.96299 8.92188 3.23163V3.99725H3.5625C1.8697 3.99725 0.5 5.36696 0.5 7.05975V46.8723C0.5 48.5651 1.8697 49.9348 3.5625 49.9348H46.4375C48.1303 49.9348 49.5 48.5651 49.5 46.8723V7.05975C49.5 5.36696 48.1303 3.99725 46.4375 3.99725ZM14.2812 41.5129C14.2812 41.9363 13.939 42.2785 13.5156 42.2785H8.92188C8.49848 42.2785 8.15625 41.9363 8.15625 41.5129V37.6848C8.15625 37.2614 8.49848 36.9191 8.92188 36.9191H13.5156C13.939 36.9191 14.2812 37.2614 14.2812 37.6848V41.5129ZM14.2812 33.091C14.2812 33.5144 13.939 33.8566 13.5156 33.8566H8.92188C8.49848 33.8566 8.15625 33.5144 8.15625 33.091V29.2629C8.15625 28.8395 8.49848 28.4973 8.92188 28.4973H13.5156C13.939 28.4973 14.2812 28.8395 14.2812 29.2629V33.091ZM14.2812 24.6691C14.2812 25.0925 13.939 25.4348 13.5156 25.4348H8.92188C8.49848 25.4348 8.15625 25.0925 8.15625 24.6691V20.841C8.15625 20.4176 8.49848 20.0754 8.92188 20.0754H13.5156C13.939 20.0754 14.2812 20.4176 14.2812 20.841V24.6691ZM23.4688 41.5129C23.4688 41.9363 23.1265 42.2785 22.7031 42.2785H18.1094C17.686 42.2785 17.3438 41.9363 17.3438 41.5129V37.6848C17.3438 37.2614 17.686 36.9191 18.1094 36.9191H22.7031C23.1265 36.9191 23.4688 37.2614 23.4688 37.6848V41.5129ZM23.4688 33.091C23.4688 33.5144 23.1265 33.8566 22.7031 33.8566H18.1094C17.686 33.8566 17.3438 33.5144 17.3438 33.091V29.2629C17.3438 28.8395 17.686 28.4973 18.1094 28.4973H22.7031C23.1265 28.4973 23.4688 28.8395 23.4688 29.2629V33.091ZM23.4688 24.6691C23.4688 25.0925 23.1265 25.4348 22.7031 25.4348H18.1094C17.686 25.4348 17.3438 25.0925 17.3438 24.6691V20.841C17.3438 20.4176 17.686 20.0754 18.1094 20.0754H22.7031C23.1265 20.0754 23.4688 20.4176 23.4688 20.841V24.6691ZM32.6562 41.5129C32.6562 41.9363 32.314 42.2785 31.8906 42.2785H27.2969C26.8735 42.2785 26.5312 41.9363 26.5312 41.5129V37.6848C26.5312 37.2614 26.8735 36.9191 27.2969 36.9191H31.8906C32.314 36.9191 32.6562 37.2614 32.6562 37.6848V41.5129ZM32.6562 33.091C32.6562 33.5144 32.314 33.8566 31.8906 33.8566H27.2969C26.8735 33.8566 26.5312 33.5144 26.5312 33.091V29.2629C26.5312 28.8395 26.8735 28.4973 27.2969 28.4973H31.8906C32.314 28.4973 32.6562 28.8395 32.6562 29.2629V33.091ZM32.6562 24.6691C32.6562 25.0925 32.314 25.4348 31.8906 25.4348H27.2969C26.8735 25.4348 26.5312 25.0925 26.5312 24.6691V20.841C26.5312 20.4176 26.8735 20.0754 27.2969 20.0754H31.8906C32.314 20.0754 32.6562 20.4176 32.6562 20.841V24.6691ZM41.8438 33.091C41.8438 33.5144 41.5015 33.8566 41.0781 33.8566H36.4844C36.061 33.8566 35.7188 33.5144 35.7188 33.091V29.2629C35.7188 28.8395 36.061 28.4973 36.4844 28.4973H41.0781C41.5015 28.4973 41.8438 28.8395 41.8438 29.2629V33.091ZM41.8438 24.6691C41.8438 25.0925 41.5015 25.4348 41.0781 25.4348H36.4844C36.061 25.4348 35.7188 25.0925 35.7188 24.6691V20.841C35.7188 20.4176 36.061 20.0754 36.4844 20.0754H41.0781C41.5015 20.0754 41.8438 20.4176 41.8438 20.841V24.6691ZM47.9688 12.4191H2.03125V7.05975C2.03125 6.2145 2.71725 5.5285 3.5625 5.5285H8.92188V8.591C8.92188 9.85964 9.95011 10.8879 11.2188 10.8879C12.4874 10.8879 13.5156 9.85964 13.5156 8.591V5.5285H36.4844V8.591C36.4844 9.85964 37.5126 10.8879 38.7812 10.8879C40.0499 10.8879 41.0781 9.85964 41.0781 8.591V5.5285H46.4375C47.2827 5.5285 47.9688 6.2145 47.9688 7.05975V12.4191Z" fill="#555555" fill-opacity="0.5" stroke="#555555" stroke-opacity="0.5" stroke-width="0.00099"/>
</svg>
