<svg width="96" height="96" viewBox="0 0 96 96" fill="none" xmlns="http://www.w3.org/2000/svg">
<circle cx="45.1084" cy="50.8916" r="43.6084" fill="#555555" stroke="white" stroke-width="3"/>
<path d="M79.8073 50.8916C79.8073 70.0552 64.2721 85.5904 45.1085 85.5904C25.9448 85.5904 10.4097 70.0552 10.4097 50.8916C10.4097 31.728 25.9448 16.1928 45.1085 16.1928C64.2721 16.1928 79.8073 31.728 79.8073 50.8916Z" fill="#555555"/>
<path d="M78.3073 50.8916C78.3073 69.2268 63.4436 84.0904 45.1085 84.0904C26.7733 84.0904 11.9097 69.2268 11.9097 50.8916C11.9097 32.5564 26.7733 17.6928 45.1085 17.6928C63.4436 17.6928 78.3073 32.5564 78.3073 50.8916Z" stroke="white" stroke-opacity="0.333333" stroke-width="3"/>
<path d="M45.1084 33.5422H83.2771V55.5L77.9999 75L45.1084 89.0602V33.5422Z" fill="#555555"/>
<path d="M85.8209 0L95.9932 5.50482L54.3614 80.0469L51.3705 63.6604L85.8209 0Z" fill="white"/>
<path d="M86.0227 0.677708L95.3096 5.7034L54.6034 78.5881L51.894 63.7436L86.0227 0.677708Z" stroke="white" stroke-opacity="0.333333"/>
<path d="M33.5421 57.0234L43.2654 48.818L54.4547 62.0771L54.3614 80.0468L33.5421 57.0234Z" fill="white"/>
<path d="M53.9537 62.2587L53.8681 78.7558L34.26 57.0719L43.2058 49.5226L53.9537 62.2587Z" stroke="white" stroke-opacity="0.333333"/>
</svg>
