<svg width="63" height="56" viewBox="0 0 63 56" fill="none" xmlns="http://www.w3.org/2000/svg">
<path d="M1.99518 8.18664L8.40829 8.18664C8.92789 11.5514 11.8437 14.1358 15.3518 14.1358C18.8599 14.1358 21.7755 11.5514 22.2953 8.18664L61.116 8.18663C61.7107 8.18663 62.193 7.70463 62.193 7.10966C62.193 6.51493 61.7107 6.03261 61.116 6.03261L22.2953 6.03261C21.7754 2.66787 18.8599 0.0836211 15.3518 0.0836213C11.8437 0.0836214 8.92785 2.66787 8.40829 6.03261L1.99518 6.03261C1.40045 6.03261 0.918163 6.51493 0.918163 7.10966C0.918129 7.70466 1.40045 8.18664 1.99518 8.18664ZM15.3518 2.23754C17.6681 2.23754 19.6106 3.86298 20.1025 6.03261C20.181 6.37945 20.2239 6.73944 20.2239 7.10966C20.2239 7.47987 20.181 7.83986 20.1025 8.18664C19.6106 10.3566 17.6681 11.9817 15.3518 11.9817C13.0352 11.9817 11.0927 10.3566 10.6011 8.18664C10.5223 7.83983 10.4797 7.47987 10.4797 7.10966C10.4797 6.73945 10.5223 6.37942 10.6011 6.03261C11.0927 3.86298 13.0352 2.23754 15.3518 2.23754Z" fill="white"/>
<path d="M61.116 46.9241L22.2953 46.9241C21.7754 43.5591 18.8599 40.9747 15.3518 40.9747C11.8437 40.9747 8.92785 43.5591 8.40829 46.9241L1.99518 46.9241C1.40045 46.9241 0.918163 47.4062 0.918163 48.0012C0.918163 48.5959 1.40048 49.0782 1.99518 49.0782L8.40829 49.0782C8.92785 52.443 11.8437 55.0273 15.3518 55.0273C18.8599 55.0273 21.7755 52.443 22.2953 49.0782L61.116 49.0782C61.7107 49.0782 62.193 48.5959 62.193 48.0012C62.193 47.4062 61.7107 46.9241 61.116 46.9241ZM15.3518 52.8733C13.0352 52.8733 11.0927 51.2478 10.6011 49.0782C10.5223 48.7314 10.4797 48.3711 10.4797 48.0012C10.4797 47.631 10.5223 47.271 10.6011 46.9242C11.0927 44.7542 13.0352 43.1288 15.3518 43.1288C17.6681 43.1288 19.6106 44.7542 20.1025 46.9242C20.181 47.271 20.2239 47.631 20.2239 48.0012C20.2239 48.3711 20.181 48.7314 20.1025 49.0782C19.6106 51.2478 17.6681 52.8733 15.3518 52.8733Z" fill="white"/>
<path d="M61.116 26.4782L49.2574 26.4782C48.7375 23.1135 45.822 20.5291 42.3139 20.5291C38.8058 20.5291 35.8899 23.1135 35.3704 26.4782L1.99518 26.4782C1.40045 26.4782 0.918163 26.9605 0.918163 27.5553C0.918163 28.1503 1.40048 28.6323 1.99518 28.6323L35.3703 28.6323C35.8899 31.9973 38.8057 34.5817 42.3138 34.5817C45.8219 34.5817 48.7375 31.9973 49.2574 28.6323L61.1159 28.6323C61.7106 28.6323 62.193 28.1503 62.193 27.5553C62.193 26.9605 61.7107 26.4782 61.116 26.4782ZM42.3138 32.4276C39.9973 32.4276 38.0547 30.8022 37.5631 28.6323C37.4844 28.2855 37.4417 27.9255 37.4417 27.5553C37.4417 27.185 37.4844 26.825 37.5631 26.4782C38.0547 24.3085 39.9973 22.6831 42.3138 22.6831C44.6302 22.6831 46.5726 24.3085 47.0646 26.4782C47.1431 26.825 47.186 27.185 47.186 27.5553C47.186 27.9255 47.1431 28.2855 47.0646 28.6323C46.5727 30.8022 44.6302 32.4276 42.3138 32.4276Z" fill="white"/>
</svg>
